# Blender v2.80 (sub 75) OBJ File: ''
# www.blender.org
mtllib pyramid.mtl
o tempPyramid2
v 0.000000 1.000000 0.000000
v -0.500000 -0.000000 0.500000
v 0.500000 -0.000000 0.500000
v 0.500000 0.000000 -0.500000
v -0.500000 0.000000 -0.500000
v 0.000000 0.000000 0.000000
vt 0.500000 1.000000
vt 0.000000 0.000000
vt 1.000000 0.000000
vt 0.000000 0.000000
vt 1.000000 0.000000
vt 0.000000 0.000000
vt 1.000000 0.000000
vt 0.000000 0.000000
vt 1.000000 0.000000
vt 0.000000 1.000000
vt 0.500000 0.500000
vt 1.000000 1.000000
vn 0.0000 0.4472 0.8944
vn 0.8944 0.4472 0.0000
vn 0.0000 0.4472 -0.8944
vn -0.8944 0.4472 0.0000
vn 0.0000 -1.0000 -0.0000
usemtl wire_214229166
s 1
f 1/1/1 2/2/1 3/3/1
f 1/1/2 3/4/2 4/5/2
f 1/1/3 4/6/3 5/7/3
f 1/1/4 5/8/4 2/9/4
f 2/10/5 6/11/5 3/12/5
f 3/12/5 6/11/5 4/5/5
f 4/5/5 6/11/5 5/8/5
f 5/8/5 6/11/5 2/10/5
